<?xml version="1.0" encoding="UTF-8"?>
<svg version="1.1" viewBox="0 0 512 512" xmlns="http://www.w3.org/2000/svg"><rect width="512" height="512" fill="#f74860"/><path d="m400 160h-177.38l216.62-60.908a12 12 0 008.3025-14.805l-3.2475-11.535a12 12 0 00-14.805-8.3025l-317.5 95.55a48 48 0 00-48 48v192a48 48 0 0048 48h288a48 48 0 0048-48v-192a48 48 0 00-48-48zm-180 90v12a6 6 0 01-6 6h-84a6 6 0 01-6-6v-12a6 6 0 016-6h84a6 6 0 016 6zm0 108a6 6 0 01-6 6h-84a6 6 0 01-6-6v-12a6 6 0 016-6h84a6 6 0 016 6zm12-48a6 6 0 01-6 6h-108a6 6 0 01-6-6v-12a6 6 0 016-6h108a6 6 0 016 6zm108 54a60 60 0 1160-60 60 60 0 01-60 60z" fill="#f4f0df" fill-opacity=".94118"/></svg>
